<svg id="Booking" xmlns="http://www.w3.org/2000/svg" width="93.427" height="93.621" viewBox="0 0 93.427 93.621">
  <path id="Path_90" data-name="Path 90" d="M53.65,2.5A42.4,42.4,0,0,0,16.9,23.683a12.27,12.27,0,0,1,8.473,3.744A33.266,33.266,0,1,1,71.089,73.34a12.27,12.27,0,0,1,3.448,5.715,26.559,26.559,0,0,1,.394,2.759A42.529,42.529,0,0,0,53.65,2.5Z" transform="translate(-2.689 -2.5)" fill="#5a5a5a"/>
  <path id="Path_91" data-name="Path 91" d="M71.289,32.98a4.76,4.76,0,0,0-6.6,0l-13.4,13.4-6.207-6.207a4.668,4.668,0,1,0-6.6,6.6l9.557,9.557a4.522,4.522,0,0,0,6.5,0L71.289,39.581A4.76,4.76,0,0,0,71.289,32.98Z" transform="translate(-2.988 -2.93)" fill="#5a5a5a"/>
  <path id="Path_92" data-name="Path 92" d="M64.571,78.8,51.369,72a4.274,4.274,0,0,0-5.419,1.182l-4.828,6.207a48.845,48.845,0,0,1-12.414-9.064,46.96,46.96,0,0,1-9.163-12.611l6.109-4.828a4.274,4.274,0,0,0,1.182-5.419l-6.8-13.1a4.363,4.363,0,0,0-6.306-1.576L5.357,38.4A6.385,6.385,0,0,0,2.5,44.316,57.362,57.362,0,0,0,3.485,51.8C5.948,61.066,11.86,70.82,20.037,79c8.276,8.178,17.932,14.089,27.292,16.552a36.161,36.161,0,0,0,7.488.985,6.463,6.463,0,0,0,5.912-2.956l5.419-8.473A4.363,4.363,0,0,0,64.571,78.8Z" transform="translate(-2.477 -2.935)" fill="#5a5a5a"/>
</svg>
