<svg xmlns="http://www.w3.org/2000/svg" width="143.615" height="104.621" viewBox="0 0 143.615 104.621">
  <g id="car" transform="translate(-56.923 -39)">
    <g id="Group_7" data-name="Group 7" transform="translate(56.923 39)">
      <path id="Path_85" data-name="Path 85" d="M23.579,37.046c2.979-6.329,5.771-13.031,9.308-20.291,1.862-3.351,4.282-6.516,8.191-6.888h61.246c4.1.372,6.329,3.537,8.377,6.888,3.537,7.26,6.329,13.962,9.308,20.291ZM41.078,0c-6.516,0-10.611,2.42-16.01,10.053L15.947,30.53H1.985c-2.048,0-5.957,11.356,8.563,11.728L5.708,54.172c0,14.893.186,29.972.186,44.864a5.485,5.485,0,0,0,5.585,5.585h18.8a5.485,5.485,0,0,0,5.585-5.585V86.564h71.671V99.037a5.6,5.6,0,0,0,5.585,5.585H132.11a5.485,5.485,0,0,0,5.585-5.585c0-14.893.186-29.972.186-44.864l-5.026-11.914c14.707-.372,10.611-11.728,8.563-11.728H127.456l-8.936-20.477C112.936,2.42,109.026,0,102.325,0Zm76.139,55.1a9.122,9.122,0,1,0,9.122,9.122A9.137,9.137,0,0,0,117.217,55.1Zm-91.032,0a9.122,9.122,0,1,1-9.122,9.122A9.137,9.137,0,0,1,26.186,55.1Z" transform="translate(0.077)" fill="#5a5a5a" fill-rule="evenodd"/>
    </g>
  </g>
</svg>
