<svg xmlns="http://www.w3.org/2000/svg" width="995.25" height="693.836" viewBox="0 0 995.25 693.836">
  <g id="Landing_page_illustration" data-name="Landing page illustration" transform="translate(98.851 -246.892)">
    <g id="OBJECTS" transform="translate(-98.851 246.892)">
      <path id="Path_1" data-name="Path 1" d="M158.693,483.12q-5.717-49.81-6.517-99.973c-.141-8.706-.118-17.623,2.847-25.881,3.318-9.082,10-16.47,16.47-23.529,9.811-10.729,19.741-21.576,31.952-29.434C219.35,294.068,238.22,289.456,257,287.221a481.448,481.448,0,0,1,48.422-2.47l145.407-2.494c12.094-.212,24.3-.4,36.14,2.047,14.117,2.918,27.223,9.529,40,16.047,19.435,9.835,40,20.682,50.728,39.622,8.776,15.388,8.4,33.317,9.153,51.01,1.294,30.164,1.224,60.163-2.988,90.726a16.47,16.47,0,0,1-5.882,11.27,18.542,18.542,0,0,1-9.882,2.588c-37.222,2.212-74.891-5.529-111.69.541" transform="translate(111.122 148.765)" fill="#5a5a5a"/>
      <rect id="Rectangle_3" data-name="Rectangle 3" width="58.61" height="62.445" rx="3.57" transform="translate(275.603 631.391)" fill="#38303b"/>
      <rect id="Rectangle_4" data-name="Rectangle 4" width="58.61" height="36.352" transform="translate(275.603 639.084)" fill="#211e23" opacity="0.58"/>
      <rect id="Rectangle_5" data-name="Rectangle 5" width="58.61" height="62.445" rx="3.57" transform="translate(631.803 631.391)" fill="#38303b"/>
      <rect id="Rectangle_6" data-name="Rectangle 6" width="58.61" height="36.352" transform="translate(631.803 639.084)" fill="#211e23" opacity="0.58"/>
      <path id="Path_2" data-name="Path 2" d="M390.113,278.032H206.59l23.529-43.175a11.764,11.764,0,0,1,10.306-6.117H356.161a11.764,11.764,0,0,1,10.306,6.117Z" transform="translate(184.797 76.52)" fill="#5a5a5a"/>
      <path id="Path_3" data-name="Path 3" d="M375.87,271.889H210.44l22.117-36.822a7.294,7.294,0,0,1,6.306-3.576H347.447a7.294,7.294,0,0,1,6.306,3.576Z" transform="translate(190.006 80.241)" fill="#f0efed"/>
      <text id="Rent_Me" data-name="Rent Me" transform="translate(430.492 340.731)" fill="#38303b" font-size="27" font-family="SegoeUI-Bold, Segoe UI" font-weight="700"><tspan x="0" y="0">Rent Me</tspan></text>
      <path id="Path_4" data-name="Path 4" d="M518.44,354.07l-348.6,5.953L206.5,263.2a19.717,19.717,0,0,1,17.929-13.364l237.1-1.788a19.553,19.553,0,0,1,17.905,12.635Z" transform="translate(135.08 102.644)" fill="#5a5a5a"/>
      <path id="Path_5" data-name="Path 5" d="M503.071,348.738,174,354.055l34.611-88.421a18.541,18.541,0,0,1,16.917-12.188L449.355,251.8a18.447,18.447,0,0,1,16.893,11.553Z" transform="translate(140.708 107.717)" fill="#f0efed"/>
      <path id="Path_6" data-name="Path 6" d="M401.561,357.744s-72.492,6.612-96.726,6.612c-23.764,0-94.844-6.612-94.844-6.612-5.247,0-9.411-3.341-9.411-7.482v-9.411c0-4.117,4.259-7.459,9.411-7.459,0,0,70.586-6.282,94.115-6.282,24.4,0,97.55,6.282,97.55,6.282,5.27,0,9.411,3.341,9.411,7.459v9.411C411.185,354.4,406.926,357.744,401.561,357.744Z" transform="translate(176.667 209.601)" fill="#f0efed"/>
      <rect id="Rectangle_7" data-name="Rectangle 7" width="232.58" height="9.223" rx="1.32" transform="translate(366.259 600.686)" fill="#f0efed"/>
      <rect id="Rectangle_8" data-name="Rectangle 8" width="450.502" height="41.975" rx="5.62" transform="translate(257.298 624.238)" fill="#c4c4c4"/>
      <path id="Path_7" data-name="Path 7" d="M149.609,375.19V380.3a10.706,10.706,0,0,0,10.07,11.27H590.042a10.729,10.729,0,0,0,10.07-11.27V375.19Z" transform="translate(107.689 274.647)" fill="#38303b" opacity="0.14"/>
      <path id="Path_8" data-name="Path 8" d="M201.775,305.711c-4.165-.376-8.564-.823-11.764-3.365a25.88,25.88,0,0,1-4.988-5.741,33.176,33.176,0,0,0-14.564-11.976,17.011,17.011,0,0,0-17.788,3.176c-5.082,5.247-4.87,14.235-.612,20.141a24.517,24.517,0,0,0,19.035,9.153,65.218,65.218,0,0,0,12.823-1.2l19.364-3.106" transform="translate(106.698 150.462)" fill="#5a5a5a"/>
      <path id="Path_9" data-name="Path 9" d="M317.538,305.71c4.165-.376,8.564-.823,11.905-3.365a27.2,27.2,0,0,0,4.988-5.741,32.94,32.94,0,0,1,14.541-11.976,17.059,17.059,0,0,1,17.811,3.176c5.059,5.247,4.87,14.235.588,20.14a24.516,24.516,0,0,1-19.035,9.153,65.539,65.539,0,0,1-12.823-1.2l-19.364-3.106" transform="translate(333.017 150.462)" fill="#5a5a5a"/>
      <path id="Path_10" data-name="Path 10" d="M239.133,363.835a70.892,70.892,0,0,1-64.727-13.341c-7.176-6-13.317-13.929-14.752-23.176a7.388,7.388,0,0,1,.212-3.859c.988-2.353,4-3.365,6.635-3.717,18.823-2.541,37.41,5.506,53.622,15.317a93.67,93.67,0,0,1,19.835,16.87c2.776,3.035,5.012,8.259,1.788,10.847" transform="translate(121.079 198.993)" fill="#f0efed"/>
      <path id="Path_11" data-name="Path 11" d="M299.659,363.835a70.915,70.915,0,0,0,64.727-13.341c7.176-6,13.317-13.929,14.729-23.176a7.059,7.059,0,0,0-.188-3.859c-1.012-2.353-4-3.365-6.659-3.717-18.823-2.541-37.411,5.506-53.622,15.317a93.529,93.529,0,0,0-19.811,16.87c-2.8,3.035-5.035,8.259-1.812,10.847" transform="translate(304.992 198.993)" fill="#f0efed"/>
      <path id="Path_12" data-name="Path 12" d="M536.367,370.869h-123.2a15.34,15.34,0,0,1-15.34-15.341v-8.964c0-29.74,13.294-53.834,53.81-53.834H497.9c42.469,0,53.834,24.093,53.834,53.834v8.964A15.364,15.364,0,0,1,536.367,370.869Z" transform="translate(443.519 163.09)" fill="gold"/>
      <path id="Path_13" data-name="Path 13" d="M414.686,368.129a140.844,140.844,0,0,1-1.341-57.057,139.187,139.187,0,0,1,3.882-15.788c.447-1.459-1.835-2.07-2.353-.635a143.219,143.219,0,0,0-5.341,57.763,147.479,147.479,0,0,0,2.824,16.353c.353,1.482,2.612.847,2.353-.635Z" transform="translate(458.144 164.582)" fill="#38303b"/>
      <path id="Path_14" data-name="Path 14" d="M455.312,369.331a160.814,160.814,0,0,0,.729-58.3,155.883,155.883,0,0,0-3.694-16.329,1.219,1.219,0,1,0-2.353.635,157.829,157.829,0,0,1,2.965,73.362c-.306,1.482,1.953,2.118,2.353.635Z" transform="translate(514.033 164.533)" fill="#38303b"/>
      <path id="Path_15" data-name="Path 15" d="M418.964,309.012a39.646,39.646,0,0,1,22.752-18.423,31.481,31.481,0,0,1,26.752,5.388,42.634,42.634,0,0,1,11.764,12.988,1.176,1.176,0,1,0,2.024-1.2,42,42,0,0,0-24.423-19.458,33.975,33.975,0,0,0-28.54,5.835,46.234,46.234,0,0,0-12.4,13.764,1.186,1.186,0,1,0,2.047,1.2Z" transform="translate(469.089 155.773)" fill="#38303b"/>
      <path id="Path_16" data-name="Path 16" d="M443.751,297.371a5.718,5.718,0,0,0-.588,4.47,4.376,4.376,0,0,0,2.8,3.247,4.024,4.024,0,0,0,4.188-1.741,5.129,5.129,0,0,0,.565-4.87,4.165,4.165,0,0,0-4.588-2.871,1.176,1.176,0,0,0-.823,1.435,1.224,1.224,0,0,0,1.459.824c.259,0-.188,0,0,0h.706c-.282,0,.118,0,.188.141h0l.282.259h0l.118.165.282.471h0v.141a.848.848,0,0,0,.118.423.733.733,0,0,0,0,.188c0,.329,0-.141,0,0a4.105,4.105,0,0,1,0,.541v.259h0a1.756,1.756,0,0,1,0,.376.563.563,0,0,1,0,.188c0,.282,0-.141,0,0a3.793,3.793,0,0,1-.235.423s-.282.376,0,.165l-.235.259-.165.165h0l-.212.141h-.518a.38.38,0,0,0-.165,0h-.306c-.024,0,.212.118,0,0h-.329l-.259-.282h0v-.141a1.5,1.5,0,0,1-.188-.329s-.188-.424,0-.141a2.71,2.71,0,0,1-.423.024,2.468,2.468,0,0,1,0-.447s0-.118,0-.165h0v-1.012h0v-.635h0a3.157,3.157,0,0,1,.235-.4,1.176,1.176,0,1,0-2.024-1.2Z" transform="translate(504.559 166.919)" fill="#38303b"/>
      <path id="Path_17" data-name="Path 17" d="M418.657,295.55a4.541,4.541,0,0,0-3.059,3.435,5.106,5.106,0,0,0,1.012,4.823,3.953,3.953,0,0,0,4.47.965,4.494,4.494,0,0,0,2.353-3.929,5.294,5.294,0,0,0-1.953-4.706,1.176,1.176,0,0,0-1.6.423,1.224,1.224,0,0,0,.423,1.624h0l.118.141c.165.188-.141-.235,0,0a2.349,2.349,0,0,1,.188.329v.259h0a4.864,4.864,0,0,1,.212.753v.235h0v.918a.659.659,0,0,0,0,.212h0a5.286,5.286,0,0,1-.212.824c0,.235,0-.165,0,0v.165l-.188.306c-.141.235.165-.188,0,0v.118l-.188.165c-.165.165.212-.118,0,0l-.353.188h-.8s-.282-.118-.353,0,.235,0,0,0H418.4c-.212-.141.165.141,0,0l-.306-.306-.118-.141h0a.486.486,0,0,1,0-.141l-.212-.353h0a.779.779,0,0,1,0-.33,2.011,2.011,0,0,1,0-.4c0-.282,0,.259,0,0a.4.4,0,0,1,0-.165v-.682h0a7.312,7.312,0,0,1,.259-.965c0-.259-.118.235,0,0V299.1a3.828,3.828,0,0,1,.259-.4c.141-.235-.188.188,0,0l.165-.212.141-.118h0l.353-.212h.259a1.219,1.219,0,1,0-.635-2.353Z" transform="translate(467.255 166.905)" fill="#38303b"/>
      <path id="Path_18" data-name="Path 18" d="M465.754,298.2v-3.035c0-.965.282-2.353-.471-3.106a15.836,15.836,0,0,0-3.176-2.023c-1.106-.635-2.353-1.224-3.411-1.741a38.408,38.408,0,0,0-7.27-2.47,36.632,36.632,0,0,0-14.658-.376A35.53,35.53,0,0,0,422.649,291c-1.082.776-.847,2.118-.918,3.341l-.212,3.623a1.177,1.177,0,0,0,2.353,0c.118-1.929.235-3.882.329-5.812l-.588,1.012a36.588,36.588,0,0,1,20.282-5.929,37.127,37.127,0,0,1,20.141,6.753c-.188-.329-.4-.659-.588-1.012V298.2a1.176,1.176,0,1,0,2.353,0Z" transform="translate(475.568 152.47)" fill="#38303b"/>
      <path id="Path_19" data-name="Path 19" d="M432.63,226.326c7.059,26.611,10.8,42.775,16.729,68.092,2.188,9.411,8.706,35.9,10.682,45.293,2.353,10.729-6.635,17.129-12.164,1.859-4.47-12.353-9.153-21.67-13.364-32.564C423.03,279.242,411.2,255.925,404.09,221.95" transform="translate(451.988 67.334)" fill="#86514d"/>
      <path id="Path_20" data-name="Path 20" d="M355.836,375.029l2.353,13.858a9.644,9.644,0,0,1,.165,2.729c-.447,3.529-4.518,5.435-6.07,8.659a1.953,1.953,0,0,0-.282,1.082c.118,1.2,1.694,1.577,2.941,1.624l10.8.376c1.341,0,2.965,0,3.717-1.129a3.834,3.834,0,0,0,.494-1.717q1.764-13.082,3.506-26.211" transform="translate(381.516 273.443)" fill="#86514d"/>
      <path id="Path_21" data-name="Path 21" d="M405.136,375.029l-2.212,13.858a9.643,9.643,0,0,0-.188,2.729c.447,3.529,4.447,5.435,6,8.659a1.953,1.953,0,0,1,.259,1.082c0,1.2-1.671,1.577-2.871,1.624l-10.635.376a3.977,3.977,0,0,1-3.67-1.129,3.836,3.836,0,0,1-.494-1.718q-1.741-13.082-3.435-26.211" transform="translate(430.071 273.443)" fill="#86514d"/>
      <path id="Path_22" data-name="Path 22" d="M442.755,404.049l-24.893.988a15.577,15.577,0,0,1-7.929-1.059c-1.318-.682-2.635-1.788-4.094-1.506s-1.929,1.247-2.965,1.741a7.059,7.059,0,0,1-2.965.494l-9.247.212a4.329,4.329,0,0,1-2.894-.659,4.165,4.165,0,0,1-.918-3.341,53.885,53.885,0,0,1,2.541-13.929c.353-1.012.847-2.165,1.859-2.494a3.883,3.883,0,0,1,2.8.729c3.482,1.976,8.07,3.341,11.294.965a13.482,13.482,0,0,1,2.494-1.859,6.447,6.447,0,0,1,3.412,0,112.943,112.943,0,0,1,28.234,9.2,12.21,12.21,0,0,1,5.341,3.976,4.517,4.517,0,0,1-.776,6.047" transform="translate(428.593 286.704)" fill="#38303b"/>
      <path id="Path_23" data-name="Path 23" d="M404.739,385.023a8.635,8.635,0,0,0-3.388,6.188,1.129,1.129,0,0,0,.329.847,1.224,1.224,0,0,0,.847.329,1.2,1.2,0,0,0,1.177-1.176c0-.212,0,.188,0,0v-.165a1.8,1.8,0,0,1,0-.353,2.711,2.711,0,0,1,.188-.682c.071-.235.141-.447.235-.682h0a.445.445,0,0,1,0-.188l.165-.329.329-.588.212-.282h0a5.139,5.139,0,0,1,.494-.518,1.225,1.225,0,0,1,.259-.235h0a1.18,1.18,0,0,0-1.176-2.047Z" transform="translate(448.28 287.896)" fill="#f09532"/>
      <path id="Path_24" data-name="Path 24" d="M401.665,384.105a16.472,16.472,0,0,0-4.07,7.059,1.218,1.218,0,0,0,2.353.635,3.065,3.065,0,0,1,.259-.871,2.036,2.036,0,0,1,.165-.4.845.845,0,0,1,0-.259h0a15.39,15.39,0,0,1,.823-1.647,17.394,17.394,0,0,1,.988-1.482c.118-.141-.165.212,0,0l.141-.165.282-.329c.212-.259.447-.494.659-.729a1.153,1.153,0,0,0,0-1.647,1.176,1.176,0,0,0-1.67,0Z" transform="translate(443.143 286.46)" fill="#f09532"/>
      <path id="Path_25" data-name="Path 25" d="M339.966,404.2l24.846.941a15.836,15.836,0,0,0,7.929-1.082c1.318-.682,2.635-1.788,4.094-1.482s1.929,1.224,2.965,1.741a7.06,7.06,0,0,0,2.965.494l9.247.188a3.129,3.129,0,0,0,3.812-4,53.69,53.69,0,0,0-2.541-13.905c-.353-1.035-.847-2.165-1.859-2.494a3.765,3.765,0,0,0-2.8.729c-3.482,1.953-8.07,3.341-11.294.965a13.479,13.479,0,0,0-2.494-1.859,6,6,0,0,0-3.412,0,112.936,112.936,0,0,0-28.234,9.176,12.26,12.26,0,0,0-5.341,4,4.541,4.541,0,0,0,.776,6.047" transform="translate(361.27 286.816)" fill="#38303b"/>
      <path id="Path_26" data-name="Path 26" d="M421.975,251.535c-19.835-17.623-32.14-27.646-51.316-43.575-7.059-5.906-27.1-22.893-34.258-28.587-8.212-6.517-16.258-.847-5.294,10.588,8.87,9.247,15.153,17.458,22.893,25.881,21.176,22.964,36.822,43.575,62.727,64.116" transform="translate(346.036 6.01)" fill="#86514d"/>
      <path id="Path_27" data-name="Path 27" d="M354.761,200.615c-4.706-5.035-5.294-9.411-7.059-13.952a55.971,55.971,0,0,0-4.894-9.247l-8.776-14.329c-.306-.494-.753-1.059-1.247-.965s-.659,1.271-.471,2.094l2.165,8.894c0,.141-.118.259-.235.165A77.645,77.645,0,0,0,319.8,162.028c-1.153-.4-1.412.706-.8,1.718l12.094,13.717c.141.141,0,.376-.188.259l-10.729-8.447a15.339,15.339,0,0,0-4.376-2.706c-.518-.165-.988.329-.847.941a8.848,8.848,0,0,0,2.471,3.647,106.1,106.1,0,0,1,10.235,11.294,130.829,130.829,0,0,1-10.329-8.306,5.2,5.2,0,0,0-2.965-1.435c-.941,0-1.2.918-.612,1.788A55.127,55.127,0,0,0,324.5,186.263c.165,0,0,.376-.118.282s-8.988-7.835-9.859-6.235,1.2,3.294,2.353,4.541c6.447,6.729,16.47,15.435,24.4,19.6a19.88,19.88,0,0,1,7.459,5.741" transform="translate(329.346 -13.845)" fill="#86514d"/>
      <path id="Path_28" data-name="Path 28" d="M330.623,188.8c-3.67-5.317-4.447-11.929-5.129-18.188,0-1.059-1.788-1.059-1.67,0,.729,6.541,1.529,13.458,5.365,19.011C329.776,190.522,331.235,189.628,330.623,188.8Z" transform="translate(343.39 -3.187)" fill="#794642"/>
      <path id="Path_29" data-name="Path 29" d="M420.234,322.04h-3.741l-25.882,107.2-13.694,102.4a1.435,1.435,0,0,1-1.388,1.247l-21.646.612A1.835,1.835,0,0,1,352,531.563l5.106-106.655,18.823-140,6.659-25.552,81.691,3.647,2.753,32.728L463.08,430.648,456.4,532.433a1.977,1.977,0,0,1-2.047,1.835l-18.117-.612a1.977,1.977,0,0,1-1.906-1.906l-3.6-101.714Z" transform="translate(381.516 117.945)" fill="#2e3c87"/>
      <path id="Path_30" data-name="Path 30" d="M391.409,186.7A5.459,5.459,0,0,0,382,186.2a.823.823,0,0,0,.282,1.129.894.894,0,0,0,1.153-.282,3.812,3.812,0,0,1,6.588.471c.494.965,1.929.118,1.435-.824Z" transform="translate(421.941 15.648)" fill="#38303b"/>
      <path id="Path_31" data-name="Path 31" d="M394.268,187.863a3.976,3.976,0,0,1,3.576-1.482,3.906,3.906,0,0,1,2.988,2.353.871.871,0,0,0,1.035.565.8.8,0,0,0,.565-1.012,5.529,5.529,0,0,0-4.141-3.482,5.6,5.6,0,0,0-5.2,1.906.871.871,0,0,0,0,1.176.847.847,0,0,0,1.176,0Z" transform="translate(436.799 16.977)" fill="#38303b"/>
      <g id="Group_1" data-name="Group 1" transform="translate(834.673 420.782)" opacity="0.46">
        <path id="Path_32" data-name="Path 32" d="M407.833,298.265a38.539,38.539,0,0,1-10.47-19.576c-.306-1.482-2.588-.871-2.353.635a40.822,40.822,0,0,0,11.082,20.611c1.106,1.059,2.776-.612,1.694-1.671Z" transform="translate(-394.993 -277.839)" fill="#f2e2c8"/>
      </g>
      <g id="Group_2" data-name="Group 2" transform="translate(753.432 417.751)" opacity="0.46">
        <path id="Path_33" data-name="Path 33" d="M374.736,277.35c-2.776,7.506-6.776,15.129-13.788,19.435a1.176,1.176,0,0,0,1.176,2.023c7.6-4.706,11.905-12.729,14.894-20.823.541-1.435-1.741-2.047-2.353-.635Z" transform="translate(-360.464 -276.55)" fill="#f2e2c8"/>
      </g>
      <g id="Group_3" data-name="Group 3" transform="translate(734.224 640.59)" opacity="0.46">
        <path id="Path_34" data-name="Path 34" d="M376.393,371.378c-7.694.282-15.411,0-23.129,0a1.2,1.2,0,0,0,0,2.353c7.717,0,15.435.165,23.129-.117a1.177,1.177,0,0,0,0-2.353Z" transform="translate(-352.301 -371.26)" fill="#f2e2c8"/>
      </g>
      <g id="Group_4" data-name="Group 4" transform="translate(815.52 641.931)" opacity="0.46">
        <path id="Path_35" data-name="Path 35" d="M408.375,372.724c-6.8,0-13.6-.518-20.376-.894a1.177,1.177,0,0,0,0,2.353c6.776.353,13.576.776,20.376.871a1.176,1.176,0,1,0,0-2.353Z" transform="translate(-386.852 -371.83)" fill="#f2e2c8"/>
      </g>
      <path id="Path_36" data-name="Path 36" d="M488.889,236.936c-12.282-9.411-21.835-16.164-40.658-18.07-9.6-.965-26.517-5.106-39.387-6.565-1.435-.165-31.787-8.964-33.081-8.259s-2.706-1.6-7.764,5.576c-3.835,5.435-7.906,10.682-9.623,17.223s-3.529,9.411,1.106,13.905,15.411,10.705,18.258,16.964a20.163,20.163,0,0,1,.541,11.105l-13.6,96.773a8.8,8.8,0,0,0,.753,6.423,7.223,7.223,0,0,0,5.835,2.118l86.8,3.835a7.223,7.223,0,0,0,5.365-1.177,8.894,8.894,0,0,0,1.953-6.329c1.2-30.587,5.623-62.492,5.882-93.1,4.07-4.494,1.953,7.2,7.341,4.894,2.541-1.059,18.47-19.858,19.646-22.517C502.795,249.524,489.83,237.548,488.889,236.936Z" transform="translate(387.658 43.054)" fill="#f2e2c8"/>
      <path id="hair" d="M415.407,219.228a25.011,25.011,0,0,0,13.223-12.517,56.234,56.234,0,0,0,4.706-17.576c.447-3.059.635-6.588-1.694-8.729a11.013,11.013,0,0,0-4.471-2.071,100.608,100.608,0,0,0-20.635-3.976c-7.717-.706-17.764-.965-24.517,2.588a6.118,6.118,0,0,0-2.588,2.07,6.658,6.658,0,0,0-.682,3.176c-.329,7.412-.376,15.058,2.353,22s9.2,13.058,16.964,13.67" transform="translate(417.495 2.365)" fill="#38303b"/>
      <g id="head" transform="translate(793.962 180.425)">
        <path id="Path_37" data-name="Path 37" d="M384.423,228.819a5.647,5.647,0,0,1-2.353-5.835c1.459-7.365,3.976-19.6,4.941-24.682a2,2,0,0,1,.282-.847,1.718,1.718,0,0,1,1.341-.518c4.023-.282,8.07.871,12.094.447,3.294-.329,6.659-1.718,9.811-.706a1.811,1.811,0,0,1,.847.541,1.976,1.976,0,0,1,.188,1.224c0,1.882-.282,3.765-.471,5.647-.471,4.87-1.412,15.858-2.023,22.588a5.623,5.623,0,0,1-3.435,4.706,22.069,22.069,0,0,1-10.682,1.623A26.68,26.68,0,0,1,384.423,228.819Z" transform="translate(-371.929 -147.771)" fill="#86514d"/>
        <path id="Path_38" data-name="Path 38" d="M409.423,197.22a1.812,1.812,0,0,0-.847-.541c-3.153-1.012-6.517.376-9.811.706-4.023.424-8.07-.729-12.094-.447a1.718,1.718,0,0,0-1.341.518,2,2,0,0,0-.282.847c-.565,2.988-1.153,5.976-1.718,8.964a22.869,22.869,0,0,0,10.706,4.706,17.247,17.247,0,0,0,14.847-5.153,25.856,25.856,0,0,1,.259-2.682c.188-1.882.376-3.765.471-5.647a1.976,1.976,0,0,0-.188-1.271Z" transform="translate(-370.06 -147.771)" fill="#794642"/>
        <path id="Path_39" data-name="Path 39" d="M428.037,206.78c-1.506,17.717-15.576,31.011-27.011,30.07s-23.105-16.47-21.623-34.164,15.294-27.9,26.752-26.94S429.449,189.04,428.037,206.78Z" transform="translate(-375.545 -175.683)" fill="#86514d"/>
        <path id="Path_40" data-name="Path 40" d="M399.15,198.784a7.858,7.858,0,0,0,6.376-5.835,5.576,5.576,0,0,0-5.035-6.329" transform="translate(-348.657 -160.888)" fill="#86514d"/>
        <path id="Path_41" data-name="Path 41" d="M382.984,197.2a7.835,7.835,0,0,1-5.294-6.8,5.576,5.576,0,0,1,6.023-5.412" transform="translate(-377.69 -163.117)" fill="#86514d"/>
      </g>
      <path id="Path_42" data-name="Path 42" d="M394.311,184.784a.407.407,0,0,1-.306.612,1.105,1.105,0,0,1-.729-.259,9.623,9.623,0,0,0-9.129-.753,3.153,3.153,0,0,1-1.412.423.988.988,0,0,1-.965-.965,1.317,1.317,0,0,1,.235-.635,4.541,4.541,0,0,1,2.141-1.671,8.588,8.588,0,0,1,8.212.8,4.989,4.989,0,0,1,2.047,2.588" transform="translate(421.792 11.727)" fill="#38303b"/>
      <path id="Path_43" data-name="Path 43" d="M392.579,184.642a.424.424,0,0,0,.212.659.988.988,0,0,0,.753-.141,9.741,9.741,0,0,1,9.153.8,3.223,3.223,0,0,0,1.294.659,1.012,1.012,0,0,0,1.129-.776,1.367,1.367,0,0,0-.141-.682,4.448,4.448,0,0,0-1.835-2,8.517,8.517,0,0,0-8.211-.588,4.87,4.87,0,0,0-2.353,2.212" transform="translate(436.3 12.998)" fill="#38303b"/>
      <path id="Path_44" data-name="Path 44" d="M403.954,195.563a5.388,5.388,0,1,1-4.941-5.553A5.27,5.27,0,0,1,403.954,195.563Z" transform="translate(437.23 24.1)" fill="#794642"/>
      <path id="Path_45" data-name="Path 45" d="M391.554,194.523a5.388,5.388,0,1,1-4.941-5.553A5.27,5.27,0,0,1,391.554,194.523Z" transform="translate(420.454 22.693)" fill="#794642"/>
      <path id="Path_46" data-name="Path 46" d="M397.688,188.453c-.141,1.765-1.082,3.106-2.094,3.035s-1.694-1.576-1.553-3.341,1.082-3.106,2.094-3.035S397.829,186.688,397.688,188.453Z" transform="translate(438.367 17.493)" fill="#38303b"/>
      <path id="Path_47" data-name="Path 47" d="M386.838,187.544c-.141,1.741-1.082,3.106-2.094,3.012s-1.694-1.576-1.553-3.318,1.082-3.129,2.094-3.035S386.979,185.779,386.838,187.544Z" transform="translate(423.689 16.261)" fill="#38303b"/>
      <path id="Path_48" data-name="Path 48" d="M403,196.542c-4.47,5.247-8.659,6.212-13.741,4.47a11.341,11.341,0,0,1-5.153-6.353,17.953,17.953,0,0,0,19.011,1.553" transform="translate(424.958 30.415)" fill="#e66e60"/>
      <path id="Path_49" data-name="Path 49" d="M403.261,196.678c-4.329,2.518-9.411,2.988-15.811.682a5.906,5.906,0,0,1-3.529-2.8,31.5,31.5,0,0,0,19.976,1.553Z" transform="translate(424.701 30.28)" fill="#fff"/>
      <path id="Path_50" data-name="Path 50" d="M435.276,201.659a26.635,26.635,0,0,1-17.458-13.694,22.943,22.943,0,0,0,1.859,8.306,96.186,96.186,0,0,0-41.034.776,1.953,1.953,0,0,1-1.365,0c-.706-.376-.776-1.412-.706-2.353.494-6.564,2.353-13.364,7.059-17.929a25.6,25.6,0,0,1,8.4-5.317,38.375,38.375,0,0,1,32.187.776,34.21,34.21,0,0,1,18.07,27.293" transform="translate(414.731 -5.265)" fill="#38303b"/>
      <path id="Path_51" data-name="Path 51" d="M391.153,184.738l-2.612,12.329-.635,3.059a3.858,3.858,0,0,0,0,2.565c.423.753,1.223.8,2.023.847l3.035.165a1.177,1.177,0,0,0,0-2.353l-2.565-.141h-.635c-.612,0-.518.141.282.753.118,0,.165-.8.212-1.012.376-1.741.729-3.482,1.106-5.223l2.188-10.306c.306-1.482-1.953-2.118-2.353-.635Z" transform="translate(429.796 15.914)" fill="#794642"/>
      <path id="Path_52" data-name="Path 52" d="M423.05,279.558a93.364,93.364,0,0,1,7.788,29.528,5.953,5.953,0,0,1,6.541-1.223c1.929.988,1.341,2.682.941,4.541a3.858,3.858,0,0,1-2.894,3.035c1.812,2.988,6.447,3.859,10.4,3.529a11.105,11.105,0,0,0,5.694-1.741c3.012-2.235,2.682-6.423.753-9.411a88.058,88.058,0,0,0-7.435-8.047,34.443,34.443,0,0,1-4.329-6.776c-4.07-7.764-5.435-16.211-8.047-24.423" transform="translate(477.638 130.405)" fill="#86514d"/>
      <path id="Path_53" data-name="Path 53" d="M346.052,387.224h0l.259.235.494.518a.5.5,0,0,0,0,.141s-.117-.165,0,0l.212.282a4.288,4.288,0,0,1,.353.635l.141.282v.188h0a2.943,2.943,0,0,0,.235.682c.07.235.118.471.165.682v.518h0a1.317,1.317,0,0,0,.353.824,1.165,1.165,0,0,0,2-.824,8.635,8.635,0,0,0-3.388-6.188,1.176,1.176,0,0,0-1.176,2.023Z" transform="translate(372.337 288.048)" fill="#f09532"/>
      <path id="Path_54" data-name="Path 54" d="M349.118,386.05a8.428,8.428,0,0,1,.612.682,3.338,3.338,0,0,1,.282.306l.188.212h0a15.851,15.851,0,0,1,1.035,1.529,14.5,14.5,0,0,1,.8,1.6c0,.165,0-.259,0,0v.188l.141.4a6.222,6.222,0,0,1,.282.941,1.223,1.223,0,0,0,1.459.824,1.2,1.2,0,0,0,.823-1.459,16.47,16.47,0,0,0-4.07-7.059,1.2,1.2,0,0,0-1.671,0,1.176,1.176,0,0,0,0,1.671Z" transform="translate(376.988 286.398)" fill="#f09532"/>
      <path id="Path_55" data-name="Path 55" d="M431.69,99H339.6A27.623,27.623,0,0,0,312,126.646v79.809a27.623,27.623,0,0,0,27.622,27.623h60.3l40.21,44.093a2.353,2.353,0,0,0,3.953-2l-8.964-42.352a27.623,27.623,0,0,0,24.211-27.387V126.646A27.646,27.646,0,0,0,431.69,99Z" transform="translate(327.403 -99)" fill="#fff"/>
      <path id="Path_56" data-name="Path 56" d="M360.265,107.65c-15.741-.118-28.587,13.505-28.7,30.422s28,62.021,28,62.021,28.823-44.7,28.94-61.6S375.982,107.768,360.265,107.65Zm-.353,44.869a15.6,15.6,0,1,1,15.435-15.482,15.6,15.6,0,0,1-15.435,15.482Z" transform="translate(353.864 -87.298)" fill="#efb93f"/>
      <path id="Path_57" data-name="Path 57" d="M183.253,193.844c-5.553-12.823-22.352-19.623-36.022-16.658s-24.47,14.235-29.74,27.2c-4.541,11.176-5.482,23.529-9.27,34.964a73.692,73.692,0,0,1-15.435,26.47c-6.306,7.059-14.117,12.8-18.823,20.823a37.1,37.1,0,0,0,26.281,56.069c12.682,1.835,25.881-2.894,38.234.565,6.282,1.765,11.929,5.553,18.376,6.494,11.106,1.671,22.14-6.023,26.987-16.164s4.447-22.07,1.835-32.94c-2.847-11.764-8.164-23.223-8.659-35.293-.541-13.482,2.706-22.376,3.906-35.811C181.889,217.679,191.088,211.914,183.253,193.844Z" transform="translate(-2 5.843)" fill="#38303b"/>
      <path id="Path_58" data-name="Path 58" d="M134.9,397.8l-.988-13.811a8.259,8.259,0,0,0-1.553-5.129c-2.212-2.353-6.376-2.047-9.811-1.459a5.906,5.906,0,0,0-3.388,1.412,4.518,4.518,0,0,0-.306,4.118q2.353,9.411,4.706,18.635" transform="translate(65.621 277.072)" fill="#f7b094"/>
      <path id="Path_59" data-name="Path 59" d="M170.582,404.708l-23.811.329c-2.588,0-23.082-.729-26.046-.729a4.047,4.047,0,0,1-2.776-.706,4,4,0,0,1-.776-3.223,50.3,50.3,0,0,1,2.753-13.27,3.322,3.322,0,0,1,1.835-2.353,3.482,3.482,0,0,1,2.635.753c3.318,1.953,3.529,1.953,7.529,1.153.965-.188,4.706-1.341,5.717-1.694a5.859,5.859,0,0,1,3.247,0,108.391,108.391,0,0,1,26.846,9.411,11.6,11.6,0,0,1,5.012,3.953,4.282,4.282,0,0,1-.871,5.764" transform="translate(63.729 287.551)" fill="#38303b"/>
      <path id="Path_60" data-name="Path 60" d="M46.77,377.311l11.364-7.906a7.6,7.6,0,0,1,5.059-1.906c3.412.353,6.023,4.212,7.953,7.576a6.729,6.729,0,0,1,1.247,3.812c-.188,1.553-1.647,2.353-2.965,2.894l-17.67,7.764" transform="translate(-31.417 264.243)" fill="#f7b094"/>
      <path id="Path_61" data-name="Path 61" d="M64.068,422.99,52.563,402.12c-1.247-2.353-10.211-20.729-11.6-23.317a3.882,3.882,0,0,1-.682-2.776c.282-1.106,1.412-1.741,2.471-2.212a50,50,0,0,1,12.988-3.741,3.435,3.435,0,0,1,2.941.518,3.553,3.553,0,0,1,.565,2.706c-.165,3.835,0,4.023,2.518,7.176.635.776,3.435,3.6,4.188,4.235a5.741,5.741,0,0,1,1.506,2.894,107.43,107.43,0,0,1,4.306,28.234,11.764,11.764,0,0,1-1.106,6.282,4.329,4.329,0,0,1-5.506,1.929" transform="translate(-40.245 267.551)" fill="#38303b"/>
      <path id="Path_62" data-name="Path 62" d="M99.266,339.665c14.494,65.48,27.411,134.231,47.41,197.993,1.6,5.082,3.882,13.788,6.282,14.117a28.071,28.071,0,0,0,9.411-.518,5.082,5.082,0,0,0,4.212-5.482c-9.082-96.467-6.541-193.758-28.023-288.037-.753-3.318-43.669,1.412-43.669,1.412" transform="translate(33.683 114.155)" fill="#2e3c87"/>
      <path id="Path_63" data-name="Path 63" d="M55.754,525.584a2.941,2.941,0,0,0,4.07,1.694c23.011-11.6,43.293-31.293,60.28-55.857,24.94-36.046,40.281-64.657,54.116-107.526,10.658-32.94,19.67-67.551,16.729-102.255a443.916,443.916,0,0,0-47.245,5.388,8.117,8.117,0,0,0-6.212,3.247c-2.188,2.353-3.412,8.517-4,11.764-6.753,37.175-8,73.55-16,110.443-9.694,44.7-30.587,91.126-64.633,118.561a2.941,2.941,0,0,0-.965,3.223Z" transform="translate(-24.683 121.03)" fill="#415299"/>
      <path id="Path_64" data-name="Path 64" d="M83,277.857l1.694,8.164a7.647,7.647,0,0,0,7.717,5.365q34.869.659,69.786.565a9.129,9.129,0,0,0,5.294-1.106,5.577,5.577,0,0,0,1.788-3.482l2.353-10.753" transform="translate(17.597 141.282)" fill="#EDD6A1"/>
      <path id="Path_65" data-name="Path 65" d="M129.35,275.787c2.541,4.235,11.6,22.329,12.753,27.034,1.247,5.082,1.718,10.517,4.329,15.082.494.894,2.353.565,2.612-.471a17.246,17.246,0,0,0,1.059-5.67c0-1.082,1.765-1.671,2.565-.871a6.846,6.846,0,0,1,1.294,2.117c1.906,4.518,4.118,7.835,6.023,12.353a31.228,31.228,0,0,0,3.341,6.47c.612.776,1.294,0,1.318-.918s-.635-4.047-.423-3.67c.447.824,2.118.565,2.094-.965a56.468,56.468,0,0,0-4.212-18.94c-4.706-10.682-17.694-24.705-22.305-36" transform="translate(80.302 134.152)" fill="#f8d2c3"/>
      <path id="Path_66" data-name="Path 66" d="M107.71,257.953a298.812,298.812,0,0,0,49.057,92.091c2.353,3.106,4.117,5.623,7.317,5.435,4.447-.235,11.882-2.635,9.811-7.388-9.694-22.446-23.27-48.422-26.023-70.421-1.247-9.906-1.765-19.693-4.165-29.811s-6.706-21.811-14.823-29.6" transform="translate(51.026 62.342)" fill="#c7a75d"/>
      <path id="Path_67" data-name="Path 67" d="M92.028,371.474c-5.035,0-8.917-4.918-9.623-9.882S87.37,345.9,86.617,340.7c-1.059-7.388-7.859-72.727,6.87-108.232,3.365-8.094,8.941-16.211,17.435-18.376a47.058,47.058,0,0,1,13.835-.282c9.647.447,19.858-1.012,28.493,3.318,14.705,7.388,17.246,26.917,17.905,43.363q.8,20.588,1.647,41.128c.682,17.105,6.494,32.775,1.223,46.469-1.553,4.023,3.859,15.67,1.059,18.964-3.129,3.647-11.411,2.353-16.235,2.353L99.275,370.98" transform="translate(16.71 55.806)" fill="#f2e2c8"/>
      <rect id="Rectangle_9" data-name="Rectangle 9" width="4.823" height="42.775" rx="0.51" transform="translate(222.224 275.158) rotate(45)" fill="#38303b"/>
      <path id="Path_68" data-name="Path 68" d="M129.006,325.774c-4.4,3.647-15.952,9.553-20.682,12.753-3.529,2.353-9.623-.141-14.588-5.67-3.435-3.812-6.07-11.435-7.482-16.352-2.706-9.411-3.6-22.187-3.882-33.528a233.142,233.142,0,0,1,3.106-39.34c1.576-10.917,9.623-25.529,17.576-28.47,11.458-4.212,16.47.612,17.741,17.529.988,12.117-1.929,22.329-4.094,42.775-.988,9.27-2.188,25.881-2.188,25.881Z" transform="translate(16.743 56.214)" fill="#efb93f"/>
      <path id="Path_69" data-name="Path 69" d="M110.88,263.272c3.553-3.412,17.082-18.423,19.482-22.634,2.588-4.565,4.541-9.647,8.235-13.364a1.512,1.512,0,0,1,2.353,1.106,17.105,17.105,0,0,1-.612,5.717c-.282,1.035,3.506,2.212,4.47,1.647s12.776-12.564,13.058-12.87c.659-.682,2.165,0,1.718,1.435a59.126,59.126,0,0,1-9.247,17.082c-7.459,9.012-23.529,19.129-30.917,28.776" transform="translate(55.315 68.223)" fill="#f8d2c3"/>
      <path id="Path_70" data-name="Path 70" d="M93.21,308.137c5.647-.941,17.764-8.517,23.011-14.564,8.306-9.576,34.7-40.634,35.434-45.834.306-2.212-6.823-8.706-9.6-11.623-1.671-1.741-15.717,14.235-23.152,20.493-2.353,1.929-15.764,12.164-22.187,16.47" transform="translate(31.41 86.32)" fill="#efb93f"/>
      <path id="Path_71" data-name="Path 71" d="M91.61,273.54c12.282-2.047,25.246-11.458,49.763-36.7a2.188,2.188,0,0,1,3.153,0l9.153,9.411" transform="translate(29.245 86.565)" fill="none" stroke="#2e3c87" stroke-miterlimit="10" stroke-width="0.28"/>
      <path id="Path_72" data-name="Path 72" d="M101.154,253.015A26.14,26.14,0,0,0,91.06,249.18" transform="translate(28.501 104.173)" fill="none" stroke="#2e3c87" stroke-miterlimit="10" stroke-width="0.28"/>
      <path id="Path_73" data-name="Path 73" d="M99.334,228.34c1.765-6.706,4.329-16.47,5.529-21.176.494-1.859.988-3.718,1.529-5.576a2.73,2.73,0,0,1,.565-1.106,1.293,1.293,0,0,1,.823-.282c2.753,0,4.847,2.353,7.247,3.647,2.941,1.6,6.4,1.694,9.411,3.176a1.341,1.341,0,0,1,.823.918,2.352,2.352,0,0,1,0,.894c-1.035,5.459-2.165,20.446-2.847,27.387-.376,3.882-7.364,5.976-14.329,3.882C99.593,237.634,98.746,231,99.334,228.34Z" transform="translate(39.497 37.91)" fill="#f8d2c3"/>
      <path id="Path_74" data-name="Path 74" d="M104.046,200.5a1.294,1.294,0,0,1,.823-.282c2.753,0,4.847,2.353,7.247,3.647,2.941,1.6,6.4,1.694,9.411,3.176a1.341,1.341,0,0,1,.823.918,2.353,2.353,0,0,1,0,.894c-.565,3.059-1.153,6.094-1.718,9.153a16.729,16.729,0,0,1-9.741,1.271,13.082,13.082,0,0,1-9.553-9.411l.706-2.659c.494-1.859.988-3.718,1.529-5.576a2.729,2.729,0,0,1,.471-1.129Z" transform="translate(42.409 37.937)" fill="#e89c82"/>
      <path id="Path_75" data-name="Path 75" d="M104.43,205.46c-3.976-.588-7.647-2.871-8.282-5.882s2.471-6.47,6.564-6.588" transform="translate(35.272 28.155)" fill="#f8d2c3"/>
      <path id="Path_76" data-name="Path 76" d="M100.429,218.681c4.212,15.035,14.847,16.964,25.881,20.564a20.845,20.845,0,0,0,7.341.659c5.129-.565,7.459-5.459,8.47-9.6a92.607,92.607,0,0,0,2.612-21.976,31.105,31.105,0,0,0-3.012-14.941,19.011,19.011,0,0,0-13.458-9.717c-7.576-1.247-15.152,2.471-20.235,7.2-7.482,7.059-11.294,16.964-8.211,25.881" transform="translate(38.897 15.217)" fill="#f8d2c3"/>
      <path id="Path_77" data-name="Path 77" d="M119.362,193.91a21.765,21.765,0,0,0,.635,6.564,6.517,6.517,0,0,0,2.212,3.647,2.541,2.541,0,0,1,.471,3.812,3.882,3.882,0,0,1-2.071.988,2.941,2.941,0,0,1-3.059-1.106" transform="translate(64.339 29.4)" fill="#f7b094"/>
      <path id="Path_78" data-name="Path 78" d="M94.82,209.013a86.114,86.114,0,0,0,31.152-9.906,39.362,39.362,0,0,0,11.764-8.188c1.647-1.859,2.871-4.4,1.388-6.423s-5.412-2.494-8.564-2.353c-2.353.141-4.541.376-6.776.729a36.351,36.351,0,0,0-10.705,3.082,38.635,38.635,0,0,0-9.411,7.247c-2.847,2.753-5.788,5.741-6.141,9.411" transform="translate(33.588 13.45)" fill="#38303b"/>
      <path id="Path_79" data-name="Path 79" d="M111.461,191.716c-.165.118,0,.329.259.353a1.717,1.717,0,0,0,.682-.165,13.787,13.787,0,0,1,8.329-.494,4.708,4.708,0,0,0,1.271.235c.447,0,.918-.259.918-.565a.565.565,0,0,0-.212-.329,4.14,4.14,0,0,0-1.906-.918,11.952,11.952,0,0,0-7.482.518,3.623,3.623,0,0,0-1.929,1.459" transform="translate(56.005 23.383)" fill="#38303b"/>
      <g id="Group_5" data-name="Group 5" transform="translate(155.654 227.146)" opacity="0.54">
        <path id="Path_80" data-name="Path 80" d="M106.4,201.445a6.612,6.612,0,0,0,6.588,6.423,6.282,6.282,0,0,0,6.823-5.882,6.612,6.612,0,0,0-6.588-6.423,6.306,6.306,0,0,0-6.823,5.882Z" transform="translate(-106.4 -195.54)" fill="#ed825d"/>
      </g>
      <path id="Path_81" data-name="Path 81" d="M113.647,195.561c0,1.812,1.059,3.247,2.141,3.2s1.859-1.529,1.741-3.341-1.059-3.223-2.141-3.2S113.529,193.75,113.647,195.561Z" transform="translate(59.042 27.114)" fill="#38303b"/>
      <path id="Path_82" data-name="Path 82" d="M149.133,115h92.091a27.623,27.623,0,0,1,27.623,27.646v79.809a27.623,27.623,0,0,1-27.623,27.623h-60.3l-40.21,44.093a2.353,2.353,0,0,1-3.953-2l8.964-42.351a27.623,27.623,0,0,1-24.211-27.387V142.576A27.646,27.646,0,0,1,149.133,115Z" transform="translate(69.696 -77.354)" fill="#fff"/>
      <path id="Path_83" data-name="Path 83" d="M140.1,154.207c.118,16.917,28.94,61.6,28.94,61.6s28.234-45.1,28-62.021-12.964-30.587-28.7-30.423S139.867,137.29,140.1,154.207Zm13.152-1.459a15.411,15.411,0,1,1,4.5,10.951,15.317,15.317,0,0,1-4.5-10.951Z" transform="translate(94.844 -66.045)" fill="#efb93f"/>
    </g>
  </g>
</svg>
