<svg xmlns="http://www.w3.org/2000/svg" width="481.493" height="568.84" viewBox="0 0 481.493 568.84">
  <g id="signup_" data-name="signup " transform="translate(-140.403 -70.57)">
    <g id="Character_2" data-name="Character 2" transform="translate(433.244 114.625)">
      <g id="Group_328" data-name="Group 328">
        <path id="Path_234" data-name="Path 234" d="M381.358,165.975l-16.19-6.565s-21.365,38.965-27.484,40.93c-8.327,2.677-25.549,10.118-35.782,11.513-1.379,1.613-3.654,6.7-3.437,8.551,13.73,4.578,43.893-1.5,50.348-6.3C363.533,203.177,381.358,165.975,381.358,165.975Z" transform="translate(-280.042 -58.462)" fill="#e58a7b"/>
        <g id="Group_324" data-name="Group 324" transform="translate(71.476 89.635)">
          <path id="Path_235" data-name="Path 235" d="M365.788,161.515c3.011,11.162-13.341,33.585-13.341,33.585l-21.483-12.05s4.005-9.217,8.908-18.605C347.79,149.287,362.349,148.776,365.788,161.515Z" transform="translate(-330.964 -152.479)" fill="#407bff"/>
          <path id="Path_236" data-name="Path 236" d="M365.788,161.515c3.011,11.162-13.341,33.585-13.341,33.585l-21.483-12.05s4.005-9.217,8.908-18.605C347.79,149.287,362.349,148.776,365.788,161.515Z" transform="translate(-330.964 -152.479)" fill="#ffb240"/>
        </g>
        <path id="Path_237" data-name="Path 237" d="M336.212,182.346l8.437,4.73,1.475-25.9C341.228,164.954,337.754,176.309,336.212,182.346Z" transform="translate(-256.17 -57.343)" opacity="0.2"/>
        <g id="Group_325" data-name="Group 325" transform="translate(82.202 86.441)">
          <path id="Path_238" data-name="Path 238" d="M347.535,154.343s-16.679,37.109-6.955,106.217h65.728c1.045-10.09-2.409-59.31,10.11-106.85a167.554,167.554,0,0,0-21.84-2.778c-8.375-.4-20.518-.672-27.941,0A127.484,127.484,0,0,0,347.535,154.343Z" transform="translate(-337.535 -150.522)" fill="#407bff"/>
          <path id="Path_239" data-name="Path 239" d="M347.535,154.343s-16.679,37.109-6.955,106.217h65.728c1.045-10.09-2.409-59.31,10.11-106.85a167.554,167.554,0,0,0-21.84-2.778c-8.375-.4-20.518-.672-27.941,0A127.484,127.484,0,0,0,347.535,154.343Z" transform="translate(-337.535 -150.522)" fill="#ffb240"/>
        </g>
        <path id="Path_240" data-name="Path 240" d="M334.323,418.372c-.1,1.753,24.817,3.173,55.66,3.173s55.93-1.42,56.033-3.173S421.2,415.2,390.356,415.2,334.426,416.619,334.323,418.372Z" transform="translate(-257.364 103.241)" fill="#e8ecf1" style="mix-blend-mode: multiply;isolation: isolate"/>
        <rect id="Rectangle_749" data-name="Rectangle 749" width="12.535" height="27.899" transform="translate(110.713 482.064) rotate(-21.073)" fill="#e58a7b"/>
        <path id="Path_241" data-name="Path 241" d="M399.557,420.476H387.268l-4.508-28.458h12.289Z" transform="translate(-226.743 88.588)" fill="#e58a7b"/>
        <path id="Path_242" data-name="Path 242" d="M392.689,408.582H406.5a1,1,0,0,1,1,.839l1.786,10.924a1.929,1.929,0,0,1-1.926,2.185c-4.815-.083-7.141-.366-13.212-.366-3.734,0-11.453.389-16.611.389-5.045,0-5.533-5.1-3.395-5.562,9.591-2.071,13.325-4.928,16.516-7.653A3.149,3.149,0,0,1,392.689,408.582Z" transform="translate(-232.954 99.059)" fill="#5a5a5a"/>
        <path id="Path_243" data-name="Path 243" d="M370.091,407.437l13.093-3.806a1.017,1.017,0,0,1,1.211.509l4.851,9.787a1.876,1.876,0,0,1-1.227,2.6c-4.741,1.294-7.929,2.1-13.865,3.831-4.1,1.192-8.274,3.134-12.326,4.425-2.806.894-9.395.932-12.808.932-5.045,0-6.17-5.321-4.009-5.562,5.473-.615,6.207-.33,9.228-1.844,4.994-2.505,8.858-4.582,13.181-9.109A6.152,6.152,0,0,1,370.091,407.437Z" transform="translate(-251.268 95.902)" fill="#5a5a5a"/>
        <path id="Path_244" data-name="Path 244" d="M309.227,193.673l-13.523-5.69-5.567,14.982a55.732,55.732,0,0,0,16.717,0Z" transform="translate(-285.298 -40.399)" fill="#e58a7b"/>
        <path id="Path_245" data-name="Path 245" d="M287.529,187.758l-.357,9.967,4.84,5.381,5.567-14.98Z" transform="translate(-287.172 -40.541)" fill="#e58a7b"/>
        <g id="Group_326" data-name="Group 326" transform="translate(110.71 477.562)">
          <rect id="Rectangle_750" data-name="Rectangle 750" width="12.54" height="14.381" transform="translate(0 4.516) rotate(-21.105)" fill="#cf6f64"/>
          <path id="Path_246" data-name="Path 246" d="M395.053,392.023H382.759l2.33,14.669h12.294Z" transform="translate(-337.454 -388.971)" fill="#cf6f64"/>
        </g>
        <path id="Path_247" data-name="Path 247" d="M338.123,225.443c.235,2.953.521,5.971.873,9.073L387.87,218.65a35.017,35.017,0,0,0,18.8-13.635c.184-4.361.436-8.939.8-13.72.168-2.332.369-4.714.588-7.129.235-2.515.5-5.081.8-7.665Z" transform="translate(-254.962 -47.657)" opacity="0.2"/>
        <path id="Path_248" data-name="Path 248" d="M348.545,179.355l-1.665-.2c.97-8.143,7.051-14.58,13.472-14.428L360.3,166.4C354.758,166.245,349.416,172.051,348.545,179.355Z" transform="translate(-249.426 -55.102)" fill="#fff"/>
        <path id="Path_249" data-name="Path 249" d="M353.335,188.589c-.093,0-.184,0-.276,0l.049-1.678c5.613.206,10.887-5.644,11.76-12.95l1.663.2C365.575,182.184,359.687,188.589,353.335,188.589Z" transform="translate(-245.52 -49.265)" fill="#fff"/>
        <path id="Path_250" data-name="Path 250" d="M383.229,131.5c-2.29,8.99-5.014,25.462.924,31.462,0,0-4.147,9.119-20.853,9.119-15.264,0-7.089-9.119-7.089-9.119,10.165-2.393,10.343-9.831,9.006-16.816Z" transform="translate(-244.909 -76.108)" fill="#e58a7b"/>
        <path id="Path_251" data-name="Path 251" d="M371.548,135.158l-10.66,8.662a28.152,28.152,0,0,1,.571,4.96c3.116,3.1,9.369-4.758,10.01-8.768A13.434,13.434,0,0,0,371.548,135.158Z" transform="translate(-240.571 -73.793)" fill="#cf6f64"/>
        <path id="Path_252" data-name="Path 252" d="M349.952,134.617a10.71,10.71,0,0,0,6.924,5.118c3.919.873,5.889-2.732,4.808-6.361-.973-3.264-4.183-7.655-8.122-6.9A5.442,5.442,0,0,0,349.952,134.617Z" transform="translate(-247.955 -79.338)" fill="#cf6f64"/>
        <path id="Path_253" data-name="Path 253" d="M355.759,113.99c-6.1,2.8-8.256,27.048-.581,30.633S367.322,108.693,355.759,113.99Z" transform="translate(-247.295 -87.485)" fill="#263238"/>
        <path id="Path_254" data-name="Path 254" d="M386.8,130.133c-1.461,12.174-1.7,19.336-8.215,25.584-9.8,9.4-24.5,3.824-26.691-8.327-1.973-10.937.749-29.007,12.948-33.851C376.866,108.766,388.266,117.96,386.8,130.133Z" transform="translate(-246.622 -88.273)" fill="#e58a7b"/>
        <path id="Path_255" data-name="Path 255" d="M370.349,130.374c9.029-2.31,15.674-3.883,13.3,3.654-3.16,10.041-6.948,19.769-1.866,20.221,3.091.276,16.8-5.541,15.062-11.425-1.516-5.125,4.857-6.507,6.033-9.121,4.232-9.411-7.861-8.189-5.708-13.883,2.1-5.544-9.742-14.916-16.3-10.338-10.617,7.412-28.863,7.306-19.271-4.851,6.87-8.706-5.388-6.919-5.388-6.919s7.4,4.392-5.058,11.182C337.943,116.093,350.035,135.571,370.349,130.374Z" transform="translate(-250.218 -97.561)" fill="#263238"/>
        <path id="Path_256" data-name="Path 256" d="M380.653,134.617a12.536,12.536,0,0,1-7.526,5.118c-4.02.873-5.567-2.732-4.061-6.361,1.355-3.264,5.081-7.655,8.93-6.9C381.789,127.215,382.814,131.417,380.653,134.617Z" transform="translate(-235.758 -79.338)" fill="#e58a7b"/>
        <path id="Path_257" data-name="Path 257" d="M344.014,217.94S332.98,316.682,332.12,354.157c-.894,38.98,37.39,160.6,37.39,160.6l19.6-8.233s-22.826-111.107-19.655-149.388c3.455-41.735,17.76-139.192,17.76-139.192Z" transform="translate(-258.767 -21.46)" fill="#5a5a5a"/>
        <path id="Path_258" data-name="Path 258" d="M357.949,236.083c-8.789,18.249-2.868,54.327,1.895,75.712,1.812-15.1,3.958-31.483,6-46.644C365.648,241.837,363.836,223.84,357.949,236.083Z" transform="translate(-245.285 -12.491)" opacity="0.2"/>
        <path id="Path_259" data-name="Path 259" d="M375.72,390.826c.091-.039,2.324,6.246,2.324,6.246l-22.6,9.49-3.56-6.619Z" transform="translate(-246.259 87.834)" fill="#407bff"/>
        <path id="Path_260" data-name="Path 260" d="M353.686,217.94s8.44,93.912,14.033,129.1c6.126,38.528,30.187,166.867,30.187,166.867h22.508s-13.485-125.229-16.033-163.374c-2.765-41.4-8.283-132.588-8.283-132.588Z" transform="translate(-245.123 -21.46)" fill="#5a5a5a"/>
        <path id="Path_261" data-name="Path 261" d="M404.754,396.036c.1,0,.752,6.29.752,6.29H380.768L379,395.106Z" transform="translate(-229.119 90.54)" fill="#407bff"/>
        <path id="Path_262" data-name="Path 262" d="M398.137,495.453a.209.209,0,0,1-.207-.186c-.122-1.138-12.285-114.2-14.574-148.471-2.483-37.192-7.475-119.658-7.526-120.487a.211.211,0,0,1,.2-.222h.013a.21.21,0,0,1,.209.2c.049.827,5.042,83.293,7.526,120.482,2.287,34.266,14.446,147.319,14.57,148.455a.207.207,0,0,1-.186.23Z" transform="translate(-231.125 -16.31)" opacity="0.2"/>
        <path id="Path_263" data-name="Path 263" d="M362.534,125.988c-.059.991-.63,1.794-1.278,1.794s-1.126-.8-1.067-1.794.63-1.8,1.278-1.8S362.593,125,362.534,125.988Z" transform="translate(-241.016 -80.725)" fill="#263238"/>
        <path id="Path_264" data-name="Path 264" d="M355.671,125.988c-.059.991-.63,1.794-1.278,1.794s-1.126-.8-1.069-1.794.632-1.8,1.28-1.8S355.728,125,355.671,125.988Z" transform="translate(-245.355 -80.725)" fill="#263238"/>
        <path id="Path_265" data-name="Path 265" d="M358.95,125.595s-2.589,5.719-5.231,8.478c1.657,1.637,4.683.888,4.683.888Z" transform="translate(-245.103 -79.839)" fill="#df5753"/>
        <path id="Path_266" data-name="Path 266" d="M357.205,135.346a.272.272,0,0,1-.274-.29.314.314,0,0,1,.308-.292,8.4,8.4,0,0,0,6.581-3.07.3.3,0,0,1,.408-.083.282.282,0,0,1,.06.4A8.9,8.9,0,0,1,357.205,135.346Z" transform="translate(-243.072 -76.066)" fill="#263238"/>
        <path id="Path_267" data-name="Path 267" d="M364.966,124.2a.578.578,0,0,1-.514-.044,4.6,4.6,0,0,0-4.157-.434.56.56,0,0,1-.761-.273.61.61,0,0,1,.318-.777,5.732,5.732,0,0,1,5.262.488.566.566,0,0,1,.148.8A.64.64,0,0,1,364.966,124.2Z" transform="translate(-241.454 -81.953)" fill="#263238"/>
        <path id="Path_268" data-name="Path 268" d="M352.258,122.613a.523.523,0,0,1-.222-.126.578.578,0,0,1,0-.821,6.07,6.07,0,0,1,5.03-2.024.541.541,0,0,1,.45.663.622.622,0,0,1-.687.49h0a4.855,4.855,0,0,0-3.969,1.645A.605.605,0,0,1,352.258,122.613Z" transform="translate(-246.274 -83.621)" fill="#263238"/>
        <path id="Path_269" data-name="Path 269" d="M419.394,164.068l-16.98-4.52s-16.65,40.979-22.529,43.656c-8,3.641-28.266,16.235-36.876,22.307-.478,2.03-.1,7.444.981,8.917,14.642-2.66,42.812-13.49,48.686-18.994C406.071,202.884,419.394,164.068,419.394,164.068Z" transform="translate(-252.002 -58.375)" fill="#e58a7b"/>
        <path id="Path_270" data-name="Path 270" d="M383.578,411.1a3.575,3.575,0,0,1-2.329-.625,1.662,1.662,0,0,1-.511-1.539.993.993,0,0,1,.547-.824c1.386-.7,5.22,1.738,5.652,2.017a.283.283,0,0,1,.116.3.317.317,0,0,1-.233.235A14.866,14.866,0,0,1,383.578,411.1ZM381.9,408.56a.852.852,0,0,0-.382.073.377.377,0,0,0-.2.341,1.126,1.126,0,0,0,.331,1.058c.638.565,2.239.641,4.35.22A11.067,11.067,0,0,0,381.9,408.56Z" transform="translate(-228.034 98.685)" fill="#ffb240"/>
        <path id="Path_271" data-name="Path 271" d="M385.717,411.787a.29.29,0,0,1-.137-.034c-1.232-.69-3.532-3.383-3.191-4.755a1.02,1.02,0,0,1,.971-.762,1.521,1.521,0,0,1,1.218.374c1.36,1.167,1.444,4.714,1.448,4.864a.31.31,0,0,1-.149.266A.3.3,0,0,1,385.717,411.787Zm-2.187-4.981c-.044,0-.088.005-.134.008-.38.046-.424.22-.442.294-.2.81,1.245,2.845,2.453,3.8-.082-1.038-.353-3.1-1.224-3.852A.97.97,0,0,0,383.53,406.805Z" transform="translate(-226.999 97.568)" fill="#ffb240"/>
        <path id="Path_272" data-name="Path 272" d="M357.42,409.67a4.651,4.651,0,0,1-3.078-.02,1.517,1.517,0,0,1-.795-1.247.973.973,0,0,1,.333-.865c1.316-1.17,6.64.088,7.242.235a.27.27,0,0,1,.207.255.316.316,0,0,1-.183.294A22.227,22.227,0,0,1,357.42,409.67Zm-2.654-1.939a1.223,1.223,0,0,0-.516.233.368.368,0,0,0-.124.346.992.992,0,0,0,.517.826c.867.47,2.879.1,5.469-.987A15.807,15.807,0,0,0,354.766,407.731Z" transform="translate(-245.216 98.087)" fill="#ffb240"/>
        <path id="Path_273" data-name="Path 273" d="M360.147,409.678a.31.31,0,0,1-.122,0c-1.581-.292-4.96-2.169-4.991-3.575-.007-.328.147-.778.921-1.048a2.084,2.084,0,0,1,1.681.1c1.773.875,2.7,4.009,2.739,4.142a.3.3,0,0,1-.07.286A.312.312,0,0,1,360.147,409.678Zm-3.86-4.123c-.056.015-.113.033-.17.051-.506.178-.5.385-.5.454.02.842,2.367,2.393,4.022,2.915-.33-.9-1.123-2.719-2.285-3.292A1.521,1.521,0,0,0,356.287,405.555Z" transform="translate(-244.272 96.749)" fill="#ffb240"/>
        <path id="Path_274" data-name="Path 274" d="M351.135,199.373l-17.02,7.834-1.975,4.8,6.292,4.232s11.739-1.278,15.083-8.82Z" transform="translate(-258.744 -33.198)" fill="#e58a7b"/>
        <path id="Path_275" data-name="Path 275" d="M345.447,209.953c-1.064-6.323-3.144-9.207-3.163-9.236l2.683-2.012c.1.139,2.571,3.47,3.788,10.691Z" transform="translate(-252.332 -33.621)" fill="#263238"/>
        <path id="Path_276" data-name="Path 276" d="M348.37,201.39a3.271,3.271,0,1,1-3.979-1.268A2.98,2.98,0,0,1,348.37,201.39Z" transform="translate(-252.356 -32.901)" fill="#263238"/>
        <path id="Path_277" data-name="Path 277" d="M326.3,210.5l2.261,2.29,15.272-6.532-6.033-2.083Z" transform="translate(-262.434 -30.164)" fill="#e58a7b"/>
        <path id="Path_278" data-name="Path 278" d="M375.72,390.826c.091-.039,2.324,6.246,2.324,6.246l-22.6,9.49-3.56-6.619Z" transform="translate(-246.259 87.834)" fill="#ffb240"/>
        <path id="Path_279" data-name="Path 279" d="M404.754,396.036c.1,0,.752,6.29.752,6.29H380.768L379,395.106Z" transform="translate(-229.119 90.54)" fill="#ffb240"/>
        <g id="Group_327" data-name="Group 327" transform="translate(134.592 89.379)">
          <path id="Path_280" data-name="Path 280" d="M406.859,163.94c4.492,14.471-12.991,34.243-12.991,34.243l-24.235-9.891a248.6,248.6,0,0,1,9.912-24.6C386.932,147.679,402.327,149.332,406.859,163.94Z" transform="translate(-369.634 -152.322)" fill="#407bff"/>
          <path id="Path_281" data-name="Path 281" d="M406.859,163.94c4.492,14.471-12.991,34.243-12.991,34.243l-24.235-9.891a248.6,248.6,0,0,1,9.912-24.6C386.932,147.679,402.327,149.332,406.859,163.94Z" transform="translate(-369.634 -152.322)" fill="#ffb240"/>
        </g>
      </g>
    </g>
    <g id="Screen" transform="translate(273.963 70.57)">
      <g id="Group_330" data-name="Group 330">
        <rect id="Rectangle_751" data-name="Rectangle 751" width="10.426" height="1.677" transform="translate(79.818)" fill="#ffb240"/>
        <rect id="Rectangle_752" data-name="Rectangle 752" width="28.035" height="1.676" transform="translate(224.005 94.542) rotate(-87.421)" fill="#ffb240"/>
        <path id="Path_282" data-name="Path 282" d="M407.153,75.194H214.558L196.629,476.251H389.224Z" transform="translate(-185.131 -67.646)" fill="#ffb240"/>
        <path id="Path_283" data-name="Path 283" d="M403.63,78.566H211.036L193.107,479.623H385.7Z" transform="translate(-187.358 -65.515)" fill="#fafafa" opacity="0.56"/>
        <path id="Path_284" data-name="Path 284" d="M400.108,81.938H207.513L189.584,482.995H382.179Z" transform="translate(-189.584 -63.383)" fill="#ffb240" opacity="0.07"/>
        <path id="Path_285" data-name="Path 285" d="M369.339,189.106H204.95l-1.372,30.7H367.967Z" transform="translate(-180.738 4.366)" fill="#fff"/>
        <path id="Path_286" data-name="Path 286" d="M294.685,175.39H205.27l-.614,13.733h89.415Z" transform="translate(-180.057 -4.305)" fill="#ffb240"/>
        <path id="Path_287" data-name="Path 287" d="M367.07,239.849H202.682l-1.372,30.7H365.7Z" transform="translate(-182.172 36.445)" fill="#fff"/>
        <path id="Path_288" data-name="Path 288" d="M327.852,284.036H217.306l-1.645,36.787H326.207Z" transform="translate(-173.099 64.379)" fill="#ffb240" opacity="0.47"/>
        <path id="Path_289" data-name="Path 289" d="M322.759,324.467H212.214a.2.2,0,0,1-.14-.062.191.191,0,0,1-.052-.142l1.645-36.788a.194.194,0,0,1,.193-.188H324.4a.2.2,0,0,1,.14.062.185.185,0,0,1,.054.142l-1.645,36.788A.194.194,0,0,1,322.759,324.467Zm-110.342-.39H322.573l1.627-36.4H214.043Z" transform="translate(-175.401 66.435)" fill="#fff"/>
        <path id="Path_290" data-name="Path 290" d="M276.8,226.134H203l-.614,13.733h73.8Z" transform="translate(-181.491 27.774)" fill="#ffb240"/>
        <path id="Path_291" data-name="Path 291" d="M315.507,144.575a43.211,43.211,0,0,1-9.083,24.571,43.9,43.9,0,0,1-34.6,17.242A39.661,39.661,0,0,1,231.9,144.575c1.033-23.1,20.587-41.815,43.666-41.815A39.637,39.637,0,0,1,315.507,144.575Z" transform="translate(-162.863 -50.22)" fill="#fff"/>
        <path id="Path_292" data-name="Path 292" d="M294.125,112.426a11.487,11.487,0,0,1-2.412,6.529,11.668,11.668,0,0,1-9.194,4.582,10.539,10.539,0,0,1-10.611-11.11,11.731,11.731,0,0,1,11.6-11.11A10.532,10.532,0,0,1,294.125,112.426Z" transform="translate(-137.549 -51.133)" fill="#ffb240"/>
        <path id="Path_293" data-name="Path 293" d="M219.077,200.414a5.193,5.193,0,0,1-5.138,4.918,4.663,4.663,0,0,1-4.7-4.918,5.194,5.194,0,0,1,5.138-4.918A4.661,4.661,0,0,1,219.077,200.414Z" transform="translate(-177.162 8.406)" fill="#263238"/>
        <path id="Path_294" data-name="Path 294" d="M232.563,200.414a5.192,5.192,0,0,1-5.138,4.918,4.661,4.661,0,0,1-4.7-4.918,5.192,5.192,0,0,1,5.138-4.918A4.661,4.661,0,0,1,232.563,200.414Z" transform="translate(-168.635 8.406)" fill="#263238"/>
        <path id="Path_295" data-name="Path 295" d="M246.052,200.414a5.194,5.194,0,0,1-5.138,4.918,4.661,4.661,0,0,1-4.7-4.918,5.193,5.193,0,0,1,5.138-4.918A4.663,4.663,0,0,1,246.052,200.414Z" transform="translate(-160.109 8.406)" fill="#263238"/>
        <path id="Path_296" data-name="Path 296" d="M216.809,251.157a5.194,5.194,0,0,1-5.138,4.919,4.662,4.662,0,0,1-4.7-4.919,5.193,5.193,0,0,1,5.138-4.918A4.663,4.663,0,0,1,216.809,251.157Z" transform="translate(-178.596 40.485)" fill="#263238"/>
        <path id="Path_297" data-name="Path 297" d="M230.3,251.157a5.193,5.193,0,0,1-5.138,4.919,4.664,4.664,0,0,1-4.7-4.919,5.194,5.194,0,0,1,5.138-4.918A4.662,4.662,0,0,1,230.3,251.157Z" transform="translate(-170.069 40.485)" fill="#263238"/>
        <path id="Path_298" data-name="Path 298" d="M243.783,251.157a5.193,5.193,0,0,1-5.138,4.919,4.664,4.664,0,0,1-4.7-4.919,5.194,5.194,0,0,1,5.14-4.918A4.661,4.661,0,0,1,243.783,251.157Z" transform="translate(-161.543 40.485)" fill="#263238"/>
        <path id="Path_299" data-name="Path 299" d="M257.271,251.157a5.2,5.2,0,0,1-5.14,4.919,4.661,4.661,0,0,1-4.7-4.919,5.193,5.193,0,0,1,5.138-4.918A4.663,4.663,0,0,1,257.271,251.157Z" transform="translate(-153.016 40.485)" fill="#263238"/>
        <path id="Path_300" data-name="Path 300" d="M270.758,251.157a5.194,5.194,0,0,1-5.138,4.919,4.663,4.663,0,0,1-4.7-4.919,5.193,5.193,0,0,1,5.138-4.918A4.663,4.663,0,0,1,270.758,251.157Z" transform="translate(-144.49 40.485)" fill="#263238"/>
        <g id="Group_329" data-name="Group 329" transform="translate(75.917 56.464)">
          <ellipse id="Ellipse_12" data-name="Ellipse 12" cx="17.294" cy="16.538" rx="17.294" ry="16.538" transform="matrix(0.715, -0.699, 0.699, 0.715, 11.618, 24.18)" fill="#407bff"/>
          <path id="Path_301" data-name="Path 301" d="M303.741,148.48a43.9,43.9,0,0,1-34.6,17.242A39.657,39.657,0,0,1,236.1,148.48c7.936-7.9,20.492-13.031,34.4-13.031C284.414,135.449,296.514,140.581,303.741,148.48Z" transform="translate(-236.097 -86.018)" fill="#407bff"/>
          <ellipse id="Ellipse_13" data-name="Ellipse 13" cx="17.294" cy="16.538" rx="17.294" ry="16.538" transform="matrix(0.715, -0.699, 0.699, 0.715, 11.618, 24.18)" fill="#ffb240"/>
          <path id="Path_302" data-name="Path 302" d="M303.741,148.48a43.9,43.9,0,0,1-34.6,17.242A39.657,39.657,0,0,1,236.1,148.48c7.936-7.9,20.492-13.031,34.4-13.031C284.414,135.449,296.514,140.581,303.741,148.48Z" transform="translate(-236.097 -86.018)" fill="#ffb240"/>
        </g>
      </g>
    </g>
    <g id="Character_1" data-name="Character 1" transform="translate(140.403 211.416)">
      <g id="Group_342" data-name="Group 342" transform="translate(0 0)">
        <g id="Group_337" data-name="Group 337" transform="translate(8.655)">
          <path id="Path_303" data-name="Path 303" d="M140.742,214.684c-1.546,3.39-3.171,7.12-4.6,10.758-1.44,3.672-2.876,7.35-4.128,11.076a139.982,139.982,0,0,0-5.833,22.524l-.372,2.4a3.666,3.666,0,0,0,.119,1.216,12.514,12.514,0,0,0,1.794,3.785,47.507,47.507,0,0,0,7.252,8.13,110.709,110.709,0,0,0,9.01,7.534c3.132,2.409,6.436,4.768,9.667,6.976l-3.041,5.729a115.783,115.783,0,0,1-22-12.55A52.587,52.587,0,0,1,118.747,273a23.177,23.177,0,0,1-3.9-6.974,15.615,15.615,0,0,1-.787-4.807c.01-.4.033-.97.06-1.24l.08-.811.163-1.621a127.017,127.017,0,0,1,5.329-25.034c1.273-4.028,2.633-8.016,4.183-11.93,1.582-3.938,3.145-7.719,5.125-11.683Z" transform="translate(-114.058 -125.601)" fill="#e58a7b"/>
          <path id="Path_304" data-name="Path 304" d="M138.095,259.7l11.533-5.851-2.98,12.677s-7.919,2.212-11.6-1.632Z" transform="translate(-100.79 -97.185)" fill="#e58a7b"/>
          <path id="Path_305" data-name="Path 305" d="M155.7,255.928l-3.068,10.478-10.473.118,2.979-12.676Z" transform="translate(-96.296 -97.185)" fill="#e58a7b"/>
          <path id="Path_306" data-name="Path 306" d="M160.432,175a32.557,32.557,0,0,0,2.587,6.454,2.645,2.645,0,0,1-2.587.829Z" transform="translate(-84.741 -147.029)" fill="#df5753"/>
          <ellipse id="Ellipse_14" data-name="Ellipse 14" cx="1.223" cy="1.87" rx="1.223" ry="1.87" transform="translate(74.127 24.327)" fill="#263238"/>
          <path id="Path_307" data-name="Path 307" d="M160.04,173.08l2.481-.715S161.248,174.3,160.04,173.08Z" transform="translate(-84.989 -148.696)" fill="#263238"/>
          <path id="Path_308" data-name="Path 308" d="M141.8,182.336c1.489,7.6,2.975,21.52-2.341,26.59,0,0,2.078,7.709,16.2,7.709,15.525,0,7.42-7.707,7.42-7.707-8.474-2.024-8.256-8.309-6.778-14.215Z" transform="translate(-97.998 -142.392)" fill="#e58a7b"/>
          <path id="Path_309" data-name="Path 309" d="M138.387,178.958c.779,12.685.837,18.07,7.244,24.581,9.636,9.793,25.046,6.062,28.073-6.6,2.724-11.4.992-30.226-11.424-35.275A17.333,17.333,0,0,0,138.387,178.958Z" transform="translate(-98.7 -156.306)" fill="#e58a7b"/>
          <path id="Path_310" data-name="Path 310" d="M144.336,163.177c-6.361,2.319-14.846.594-11.517,20.228,3.526,20.787-1.9,27.626-1.9,27.626s24.142,5.145,48.789-.307c0,0-7.524-13.16-5.414-22.761,2.693-12.246.56-16.772.56-16.772S153.28,159.916,144.336,163.177Z" transform="translate(-103.399 -154.878)" fill="#263238"/>
          <path id="Path_311" data-name="Path 311" d="M155.64,177.166a12.794,12.794,0,0,0,2,6.8c1.72,2.646,3.761,1.569,4.27-1.178.46-2.471.119-6.826-2.083-8.513C157.658,172.614,155.671,174.293,155.64,177.166Z" transform="translate(-87.771 -147.903)" fill="#e58a7b"/>
          <path id="Path_312" data-name="Path 312" d="M135.847,168.384c-1.836-5.133,6.886-13.028,25.325-9.746s19.25,18.621,19.25,18.621l-3.731-4.428.167,4.661-18.95,3.643Z" transform="translate(-100.435 -157.863)" fill="#263238"/>
          <g id="Group_331" data-name="Group 331" transform="translate(36.937 61.896)">
            <path id="Path_313" data-name="Path 313" d="M136.727,201.287h0a2.873,2.873,0,0,1,2.367-3.3c5.742-.948,18.793-2.869,25.362-1.959,4.88.676,6.17,3.525,6.377,5.856a2.878,2.878,0,0,1-3.01,3.106l-28.382-1.281A2.882,2.882,0,0,1,136.727,201.287Z" transform="translate(-136.689 -195.786)" fill="#407bff"/>
            <path id="Path_314" data-name="Path 314" d="M136.727,201.287h0a2.873,2.873,0,0,1,2.367-3.3c5.742-.948,18.793-2.869,25.362-1.959,4.88.676,6.17,3.525,6.377,5.856a2.878,2.878,0,0,1-3.01,3.106l-28.382-1.281A2.882,2.882,0,0,1,136.727,201.287Z" transform="translate(-136.689 -195.786)" opacity="0.6"/>
          </g>
          <path id="Path_315" data-name="Path 315" d="M146.76,383.107l10.519,7.3,17.614-23.871-10.519-7.3Z" transform="translate(-93.384 -30.56)" fill="#e58a7b"/>
          <path id="Path_316" data-name="Path 316" d="M131.715,383.345l11.127,6.336,15.59-25.247L147.305,358.1Z" transform="translate(-102.895 -31.28)" fill="#e58a7b"/>
          <g id="Group_332" data-name="Group 332" transform="translate(36.362 326.824)">
            <path id="Path_317" data-name="Path 317" d="M171.584,366.543l-9.077,12.306-10.523-7.306,9.077-12.306Z" transform="translate(-126.444 -357.383)" fill="#cf6f64"/>
            <path id="Path_318" data-name="Path 318" d="M144.377,358.1l11.132,6.339-8.041,13.011-11.132-6.339Z" transform="translate(-136.336 -358.101)" fill="#cf6f64"/>
          </g>
          <g id="Group_333" data-name="Group 333" transform="translate(21.14 147.099)">
            <path id="Path_319" data-name="Path 319" d="M168.121,247.988s41.1,51.8,33.388,101.329c-6.227,40.008-42.293,94.181-42.293,94.181l-16.96-8.429s18.426-36,30.525-74.168c5.073-16.005,2.912-33.639-6.574-47.491-20.818-30.407-54.172-12.316-31.736-65.423Z" transform="translate(-127.01 -247.988)" fill="#407bff"/>
            <path id="Path_320" data-name="Path 320" d="M168.121,247.988s41.1,51.8,33.388,101.329c-6.227,40.008-42.293,94.181-42.293,94.181l-16.96-8.429s18.426-36,30.525-74.168c5.073-16.005,2.912-33.639-6.574-47.491-20.818-30.407-54.172-12.316-31.736-65.423Z" transform="translate(-127.01 -247.988)" fill="#5a5a5a"/>
          </g>
          <path id="Path_321" data-name="Path 321" d="M166.861,270.679l-5.97-5.936c0,.468,11.572,71.9,14.827,91.98a122.4,122.4,0,0,0,4.377-18C183.869,314.472,175.935,289.666,166.861,270.679Z" transform="translate(-84.451 -90.297)" opacity="0.4"/>
          <g id="Group_334" data-name="Group 334" transform="translate(32.466 147.099)">
            <path id="Path_322" data-name="Path 322" d="M182.09,247.988s49.486,65.091,50.878,104.125c1.165,32.707-53.9,95.882-53.9,95.882l-15.987-10.342s32.2-44.914,40.308-81.627c-3.091-36.34-69.436-108.039-69.436-108.039Z" transform="translate(-133.949 -247.988)" fill="#407bff"/>
            <path id="Path_323" data-name="Path 323" d="M182.09,247.988s49.486,65.091,50.878,104.125c1.165,32.707-53.9,95.882-53.9,95.882l-15.987-10.342s32.2-44.914,40.308-81.627c-3.091-36.34-69.436-108.039-69.436-108.039Z" transform="translate(-133.949 -247.988)" fill="#5a5a5a"/>
          </g>
          <path id="Path_324" data-name="Path 324" d="M129.947,200.5c-5.3,1.25-10.364,20.489-10.364,20.489l20.667,13.8s6.888-15.205,4.484-21.866C142.229,205.979,136.639,198.918,129.947,200.5Z" transform="translate(-110.565 -131.053)" fill="#ffb240"/>
          <path id="Path_325" data-name="Path 325" d="M128.97,207.994l-1.443,16.761,7.694,5.15s3.605-7.967,4.679-14.91Z" transform="translate(-105.543 -126.172)" opacity="0.2"/>
          <path id="Path_326" data-name="Path 326" d="M193.277,202.073s6.1,2.15-6.119,77.285H135.152c.873-21.166.9-34.217-9.219-77.656a153.6,153.6,0,0,1,22.083-2.91c8.752-.421,15.922-.7,23.616,0C181.775,199.719,193.277,202.073,193.277,202.073Z" transform="translate(-106.551 -132.259)" fill="#ffb240"/>
          <path id="Path_327" data-name="Path 327" d="M175.25,209.991c1.178,3.256,2.425,6.777,3.723,10.16q1.866,5.149,3.872,10.27l4,10.253,1.012,2.561.508,1.281.255.64c.044.116.036.106.02.093a3.586,3.586,0,0,0-1.143-1.018,4.551,4.551,0,0,0-2.132-.622,4.217,4.217,0,0,0-1.815.328c-.736.353-.748.5-.731.478a2.113,2.113,0,0,0,.366-.371,23.347,23.347,0,0,0,2.332-3.8c.772-1.5,1.5-3.1,2.228-4.719,1.444-3.253,2.758-6.646,4.1-10.048s2.567-6.87,3.8-10.34l3.716-10.418,6.289,1.586c-1.245,7.451-2.853,14.748-4.771,22.072-.937,3.669-2.021,7.309-3.259,10.981-.617,1.839-1.309,3.674-2.1,5.545a34.086,34.086,0,0,1-3.1,5.9,14.5,14.5,0,0,1-1.423,1.761,9.1,9.1,0,0,1-2.974,2.1,7.367,7.367,0,0,1-3.168.592,7.281,7.281,0,0,1-3.446-1.038,8.633,8.633,0,0,1-2.967-3.083c-.25-.413-.46-.842-.607-1.149l-.31-.633-.619-1.267-1.236-2.535c-1.611-3.4-3.191-6.811-4.689-10.263q-2.223-5.193-4.327-10.448c-1.342-3.56-2.667-7.009-3.845-10.8Z" transform="translate(-83.242 -128.244)" fill="#e58a7b"/>
          <path id="Path_328" data-name="Path 328" d="M173.093,200.827c6.251,1.49,13.275,19.958,13.275,19.958l-18.577,15.83s-12.039-20.139-9.6-26.789C160.722,202.9,164.927,198.881,173.093,200.827Z" transform="translate(-86.367 -131.013)" fill="#fabe64"/>
          <path id="Path_329" data-name="Path 329" d="M188.152,203.3l6.519-5.453,4.536,7.066-3.341,5.9s-5.321,4.87-10.033,2.393h0A8.467,8.467,0,0,1,188.152,203.3Z" transform="translate(-69.137 -132.586)" fill="#e58a7b"/>
          <path id="Path_330" data-name="Path 330" d="M202.806,197.865l-.488,1.777-10.329,1.735-1.018-3.529Z" transform="translate(-65.436 -132.586)" fill="#e58a7b"/>
          <path id="Path_331" data-name="Path 331" d="M169.62,377.971l-18.637-12.056,3.337-5.8,20.946,12.876Z" transform="translate(-90.715 -30.007)" fill="#ffb240"/>
          <path id="Path_332" data-name="Path 332" d="M144.83,378.092a11.175,11.175,0,0,1-4.614-1.6.3.3,0,0,1-.153-.3.3.3,0,0,1,.209-.259c.5-.158,4.924-1.513,6.178-.462a1.033,1.033,0,0,1,.346.984,1.715,1.715,0,0,1-.921,1.413A2.307,2.307,0,0,1,144.83,378.092Zm-3.671-1.781c2.029,1.032,3.659,1.412,4.444,1.022a1.14,1.14,0,0,0,.592-.953.428.428,0,0,0-.139-.437C145.4,375.389,142.948,375.82,141.16,376.311Z" transform="translate(-97.62 -20.543)" fill="#263238"/>
          <path id="Path_333" data-name="Path 333" d="M140.365,377.929a.3.3,0,0,1-.292-.385c.042-.15,1.061-3.7,2.737-4.5a1.579,1.579,0,0,1,1.345-.041,1.055,1.055,0,0,1,.751,1.092c-.114,1.467-3.1,3.494-4.469,3.827A.343.343,0,0,1,140.365,377.929Zm3.163-4.451a1.054,1.054,0,0,0-.455.111c-1,.482-1.838,2.394-2.238,3.558,1.436-.606,3.4-2.207,3.467-3.1.011-.145-.021-.335-.382-.485A.994.994,0,0,0,143.528,373.478Z" transform="translate(-97.62 -21.941)" fill="#263238"/>
          <path id="Path_334" data-name="Path 334" d="M159.549,382.924c-1.838,0-4.4-2.362-5.8-3.813a.306.306,0,0,1-.054-.348A.329.329,0,0,1,154,378.6c.646.085,6.323.85,7.126,2.455a.982.982,0,0,1-.038.955,1.682,1.682,0,0,1-1.293.9A2.065,2.065,0,0,1,159.549,382.924Zm-4.728-3.594c2.063,2,3.867,3.114,4.9,2.977a1.093,1.093,0,0,0,.841-.6.375.375,0,0,0,.021-.384C160.148,380.449,157.117,379.7,154.82,379.33Z" transform="translate(-89.022 -18.322)" fill="#263238"/>
          <path id="Path_335" data-name="Path 335" d="M155,380.385a6.173,6.173,0,0,1-1.092-.082.3.3,0,0,1-.178-.491c.093-.113,2.3-2.775,4.387-2.959a2.205,2.205,0,0,1,1.679.529c.641.55.6,1.04.447,1.351C159.726,379.822,156.906,380.385,155,380.385Zm-.421-.612c1.823.1,4.738-.5,5.118-1.3.033-.067.129-.269-.294-.63a1.59,1.59,0,0,0-1.231-.385C156.8,377.58,155.272,379.032,154.578,379.773Z" transform="translate(-89.022 -19.428)" fill="#263238"/>
          <path id="Path_336" data-name="Path 336" d="M148.227,376.45l-13.843-3.914a1.016,1.016,0,0,0-1.223.565l-4.673,10.506a2.058,2.058,0,0,0,1.356,2.75c4.851,1.281,7.257,1.655,13.343,3.375,3.746,1.059,9.108,3,14.28,4.457,5.058,1.43,6.893-3.574,4.87-4.647-9.07-4.807-9.785-8.1-12.266-11.753A3.34,3.34,0,0,0,148.227,376.45Z" transform="translate(-105.035 -22.178)" fill="#ffb240"/>
          <path id="Path_337" data-name="Path 337" d="M162.27,380.995l-11.817-8.2a1.013,1.013,0,0,0-1.338.137l-7.838,8.414a2.057,2.057,0,0,0,.388,3.041c4.169,2.789,6.321,3.927,11.518,7.534,3.2,2.22,9.579,7.144,13.994,10.209,4.319,3,7.681-1.138,6.117-2.809-7.012-7.5-8.559-12.194-9.716-16.454A3.347,3.347,0,0,0,162.27,380.995Z" transform="translate(-97.169 -22.112)" fill="#ffb240"/>
          <path id="Path_338" data-name="Path 338" d="M156.328,374.772l-21.31-10.591,2.206-5.766,22.745,11.15Z" transform="translate(-100.807 -31.08)" fill="#ffb240"/>
          <g id="Group_335" data-name="Group 335" transform="translate(25.977 143.657)">
            <path id="Path_339" data-name="Path 339" d="M131.819,246.269l-1.8,4.655c-.181.362.246.73.847.73h54c.468,0,.857-.229.886-.524l.468-4.655c.033-.323-.374-.6-.886-.6H132.666A.947.947,0,0,0,131.819,246.269Z" transform="translate(-129.973 -245.879)" fill="#f8e2c2"/>
            <path id="Path_340" data-name="Path 340" d="M131.819,246.269l-1.8,4.655c-.181.362.246.73.847.73h54c.468,0,.857-.229.886-.524l.468-4.655c.033-.323-.374-.6-.886-.6H132.666A.947.947,0,0,0,131.819,246.269Z" transform="translate(-129.973 -245.879)" fill="#f8e2c2" opacity="0.4"/>
          </g>
          <g id="Group_336" data-name="Group 336" transform="translate(34.428 143.244)">
            <path id="Path_341" data-name="Path 341" d="M137.038,252.318h-1.41c-.281,0-.495-.144-.475-.322l.661-6.047c.02-.178.266-.323.547-.323h1.41c.281,0,.495.145.475.323L137.584,252C137.565,252.174,137.318,252.318,137.038,252.318Z" transform="translate(-135.151 -245.626)" fill="#f7a225"/>
            <path id="Path_342" data-name="Path 342" d="M157.445,252.318h-1.41c-.281,0-.495-.144-.477-.322l.663-6.047c.02-.178.264-.323.545-.323h1.41c.281,0,.5.145.477.323L157.99,252C157.972,252.174,157.726,252.318,157.445,252.318Z" transform="translate(-122.251 -245.626)" fill="#f7a225"/>
          </g>
        </g>
        <g id="Group_341" data-name="Group 341" transform="translate(0 190.067)">
          <g id="Group_338" data-name="Group 338" transform="translate(0 16.246)">
            <ellipse id="Ellipse_15" data-name="Ellipse 15" cx="43.728" cy="3.174" rx="43.728" ry="3.174" transform="translate(0 213.703)" fill="#f5f5f5" style="mix-blend-mode: multiply;isolation: isolate"/>
            <path id="Path_343" data-name="Path 343" d="M173.14,496.667c-7.737-2.246-16.252-5.14-21.52-8.218-.147-.085-.3-.147-.45-.224V453.25H166.73a4.658,4.658,0,1,0,0-9.317H151.169V284.267h-9.318V443.933H126.29a4.658,4.658,0,1,0,0,9.317h15.561v34.976c-.15.077-.3.139-.451.224-5.269,3.078-13.784,5.972-21.52,8.218a2.283,2.283,0,0,0,.64,4.475H172.5A2.283,2.283,0,0,0,173.14,496.667Z" transform="translate(-102.764 -284.267)" fill="#e0e0e0"/>
          </g>
          <g id="Group_340" data-name="Group 340" transform="translate(6.267)">
            <rect id="Rectangle_753" data-name="Rectangle 753" width="74.957" height="34.167" rx="5.18" fill="#f9b857"/>
            <g id="Group_339" data-name="Group 339" transform="translate(7.921 34.167)">
              <path id="Path_344" data-name="Path 344" d="M117.448,295.247v2.971c0,2.448,2.664,4.451,5.922,4.451h47.273c3.256,0,5.922-2,5.922-4.451v-2.971Z" transform="translate(-117.448 -295.247)" fill="#faca83"/>
              <path id="Path_345" data-name="Path 345" d="M117.448,295.247v2.971c0,2.448,2.664,4.451,5.922,4.451h47.273c3.256,0,5.922-2,5.922-4.451v-2.971Z" transform="translate(-117.448 -295.247)" fill="#faca83" opacity="0.3"/>
            </g>
          </g>
        </g>
      </g>
    </g>
  </g>
</svg>
